<mxfile host="app.diagrams.net" agent="Mozilla/5.0 (Windows NT 10.0; Win64; x64) AppleWebKit/537.36 (KHTML, like Gecko) Chrome/136.0.0.0 Safari/537.36 Edg/136.0.0.0" version="27.0.9">
  <diagram name="Страница — 1" id="Orcud-IEAuakISV7Oiop">
    <mxGraphModel dx="978" dy="542" grid="1" gridSize="10" guides="1" tooltips="1" connect="1" arrows="1" fold="1" page="1" pageScale="1" pageWidth="827" pageHeight="1169" math="0" shadow="0">
      <root>
        <mxCell id="0" />
        <mxCell id="1" parent="0" />
        <mxCell id="oxBQLn68J22deO0rdXhY-2" value="Регистрация" style="swimlane;fontStyle=1;align=center;verticalAlign=top;childLayout=stackLayout;horizontal=1;startSize=26;horizontalStack=0;resizeParent=1;resizeParentMax=0;resizeLast=0;collapsible=1;marginBottom=0;whiteSpace=wrap;html=1;" vertex="1" parent="1">
          <mxGeometry x="200" y="200" width="160" height="210" as="geometry" />
        </mxCell>
        <mxCell id="oxBQLn68J22deO0rdXhY-3" value="&lt;div&gt;Nickname: Строка&lt;/div&gt;Email: Строка&lt;div&gt;Password: Строка&lt;/div&gt;&lt;div&gt;SecPassword: Строка&lt;/div&gt;" style="text;strokeColor=none;fillColor=none;align=left;verticalAlign=top;spacingLeft=4;spacingRight=4;overflow=hidden;rotatable=0;points=[[0,0.5],[1,0.5]];portConstraint=eastwest;whiteSpace=wrap;html=1;" vertex="1" parent="oxBQLn68J22deO0rdXhY-2">
          <mxGeometry y="26" width="160" height="64" as="geometry" />
        </mxCell>
        <mxCell id="oxBQLn68J22deO0rdXhY-4" value="" style="line;strokeWidth=1;fillColor=none;align=left;verticalAlign=middle;spacingTop=-1;spacingLeft=3;spacingRight=3;rotatable=0;labelPosition=right;points=[];portConstraint=eastwest;strokeColor=inherit;" vertex="1" parent="oxBQLn68J22deO0rdXhY-2">
          <mxGeometry y="90" width="160" height="10" as="geometry" />
        </mxCell>
        <mxCell id="oxBQLn68J22deO0rdXhY-5" value="Проверка совпадения паролей()&lt;div&gt;Проверка на уникальность почты()&lt;/div&gt;&lt;div&gt;Проверка на уникальность никнейма()&lt;/div&gt;&lt;div&gt;Создать аккаунт()&lt;/div&gt;" style="text;strokeColor=none;fillColor=none;align=left;verticalAlign=top;spacingLeft=4;spacingRight=4;overflow=hidden;rotatable=0;points=[[0,0.5],[1,0.5]];portConstraint=eastwest;whiteSpace=wrap;html=1;" vertex="1" parent="oxBQLn68J22deO0rdXhY-2">
          <mxGeometry y="100" width="160" height="110" as="geometry" />
        </mxCell>
        <mxCell id="oxBQLn68J22deO0rdXhY-6" value="Аккаунт" style="swimlane;fontStyle=1;align=center;verticalAlign=top;childLayout=stackLayout;horizontal=1;startSize=26;horizontalStack=0;resizeParent=1;resizeParentMax=0;resizeLast=0;collapsible=1;marginBottom=0;whiteSpace=wrap;html=1;" vertex="1" parent="1">
          <mxGeometry x="410" y="200" width="160" height="120" as="geometry" />
        </mxCell>
        <mxCell id="oxBQLn68J22deO0rdXhY-7" value="&lt;div&gt;id: UUID&lt;/div&gt;&lt;div&gt;Nickname: Строка&lt;/div&gt;Email: Строка&lt;div&gt;Password: Строка&lt;/div&gt;&lt;div&gt;SecPassword: Строка&lt;/div&gt;" style="text;strokeColor=none;fillColor=none;align=left;verticalAlign=top;spacingLeft=4;spacingRight=4;overflow=hidden;rotatable=0;points=[[0,0.5],[1,0.5]];portConstraint=eastwest;whiteSpace=wrap;html=1;" vertex="1" parent="oxBQLn68J22deO0rdXhY-6">
          <mxGeometry y="26" width="160" height="84" as="geometry" />
        </mxCell>
        <mxCell id="oxBQLn68J22deO0rdXhY-8" value="" style="line;strokeWidth=1;fillColor=none;align=left;verticalAlign=middle;spacingTop=-1;spacingLeft=3;spacingRight=3;rotatable=0;labelPosition=right;points=[];portConstraint=eastwest;strokeColor=inherit;" vertex="1" parent="oxBQLn68J22deO0rdXhY-6">
          <mxGeometry y="110" width="160" height="10" as="geometry" />
        </mxCell>
        <mxCell id="oxBQLn68J22deO0rdXhY-10" style="edgeStyle=orthogonalEdgeStyle;rounded=0;orthogonalLoop=1;jettySize=auto;html=1;endArrow=none;endFill=1;startFill=0;entryX=0;entryY=0.373;entryDx=0;entryDy=0;entryPerimeter=0;" edge="1" parent="1" source="oxBQLn68J22deO0rdXhY-3" target="oxBQLn68J22deO0rdXhY-7">
          <mxGeometry relative="1" as="geometry">
            <mxPoint x="460" y="259" as="targetPoint" />
          </mxGeometry>
        </mxCell>
      </root>
    </mxGraphModel>
  </diagram>
</mxfile>
